<svg width="265" height="30" viewBox="0 0 265 30" fill="none" xmlns="http://www.w3.org/2000/svg">
<path d="M21.96 1.2L21.2 6.84H14.64V29H7.24V6.84H0.28V1.2H21.96ZM31.435 1.2V29H24.035V1.2H31.435ZM50.3538 29L49.1138 23.32H41.7538L40.5138 29H32.8337L41.0738 1.2H49.9538L58.1938 29H50.3538ZM42.9138 18.04H47.9538L45.4338 6.48L42.9138 18.04ZM71.7513 0.479998C75.4579 0.479998 78.6446 1.65333 81.3113 4L77.6713 7.8C76.6579 7.08 75.7379 6.56 74.9113 6.24C74.1113 5.89333 73.1913 5.72 72.1513 5.72C70.1513 5.72 68.5779 6.49333 67.4313 8.04C66.3113 9.58667 65.7513 11.9467 65.7513 15.12C65.7513 17.44 65.9379 19.28 66.3113 20.64C66.6846 21.9733 67.2446 22.9333 67.9913 23.52C68.7646 24.1067 69.7513 24.4 70.9513 24.4C72.1513 24.4 73.2446 24.1467 74.2313 23.64V17.92H71.0713L70.3513 12.84H81.3913V26.68C79.9513 27.64 78.3246 28.3867 76.5113 28.92C74.6979 29.4533 72.9113 29.72 71.1513 29.72C62.4579 29.72 58.1113 24.84 58.1113 15.08C58.1113 12.04 58.6979 9.42667 59.8713 7.24C61.0713 5.02667 62.6979 3.34667 64.7513 2.2C66.8046 1.05333 69.1379 0.479998 71.7513 0.479998ZM96.8078 0.479998C100.834 0.479998 103.968 1.76 106.208 4.32C108.448 6.88 109.568 10.4667 109.568 15.08C109.568 18.0933 109.061 20.7067 108.048 22.92C107.061 25.1067 105.608 26.7867 103.688 27.96C101.768 29.1333 99.4745 29.72 96.8078 29.72C92.7811 29.72 89.6478 28.44 87.4078 25.88C85.1945 23.32 84.0878 19.72 84.0878 15.08C84.0878 12.0667 84.5811 9.46667 85.5678 7.28C86.5811 5.09333 88.0345 3.41333 89.9278 2.24C91.8478 1.06666 94.1411 0.479998 96.8078 0.479998ZM96.8078 5.8C95.0745 5.8 93.7945 6.52 92.9678 7.96C92.1678 9.4 91.7678 11.7733 91.7678 15.08C91.7678 18.3867 92.1811 20.7733 93.0078 22.24C93.8345 23.68 95.1011 24.4 96.8078 24.4C98.5678 24.4 99.8478 23.68 100.648 22.24C101.448 20.8 101.848 18.4133 101.848 15.08C101.848 11.7733 101.448 9.4 100.648 7.96C99.8478 6.52 98.5678 5.8 96.8078 5.8ZM131.327 18.76H129.287V29H121.887V1.2H131.527C135.447 1.2 138.367 1.90667 140.287 3.32C142.233 4.73333 143.207 6.90667 143.207 9.84C143.207 11.6 142.793 13.0667 141.967 14.24C141.167 15.4133 139.873 16.4667 138.087 17.4L145.007 29H136.767L131.327 18.76ZM129.287 13.72H131.767C134.327 13.72 135.607 12.4267 135.607 9.84C135.607 8.64 135.247 7.76 134.527 7.2C133.833 6.64 132.78 6.36 131.367 6.36H129.287V13.72ZM154.091 1.2V29H146.691V1.2H154.091ZM173.97 14.28C175.837 14.6533 177.343 15.3333 178.49 16.32C179.637 17.3067 180.21 18.8133 180.21 20.84C180.21 23.8533 179.117 25.9733 176.93 27.2C174.743 28.4 171.69 29 167.77 29H158.41V1.2H166.69C170.69 1.2 173.743 1.76 175.85 2.88C177.983 3.97333 179.05 5.8 179.05 8.36C179.05 9.98667 178.557 11.2933 177.57 12.28C176.61 13.24 175.41 13.9067 173.97 14.28ZM165.81 6.36V12.16H167.73C169.037 12.16 169.997 11.92 170.61 11.44C171.223 10.96 171.53 10.1867 171.53 9.12C171.53 8.13333 171.197 7.42667 170.53 7C169.89 6.57333 168.837 6.36 167.37 6.36H165.81ZM167.81 23.72C169.383 23.72 170.57 23.4933 171.37 23.04C172.17 22.56 172.57 21.68 172.57 20.4C172.57 19.1733 172.197 18.2933 171.45 17.76C170.703 17.2 169.623 16.92 168.21 16.92H165.81V23.72H167.81ZM200.816 1.2L200.056 6.44H190.576V12.36H198.856V17.44H190.576V23.76H200.696V29H183.176V1.2H200.816ZM211.513 1.2V29H204.113V1.2H211.513ZM225.272 18.76H223.232V29H215.832V1.2H225.472C229.392 1.2 232.312 1.90667 234.232 3.32C236.179 4.73333 237.152 6.90667 237.152 9.84C237.152 11.6 236.739 13.0667 235.912 14.24C235.112 15.4133 233.819 16.4667 232.032 17.4L238.952 29H230.712L225.272 18.76ZM223.232 13.72H225.712C228.272 13.72 229.552 12.4267 229.552 9.84C229.552 8.64 229.192 7.76 228.472 7.2C227.779 6.64 226.725 6.36 225.312 6.36H223.232V13.72ZM251.73 0.479998C255.756 0.479998 258.89 1.76 261.13 4.32C263.37 6.88 264.49 10.4667 264.49 15.08C264.49 18.0933 263.983 20.7067 262.97 22.92C261.983 25.1067 260.53 26.7867 258.61 27.96C256.69 29.1333 254.396 29.72 251.73 29.72C247.703 29.72 244.57 28.44 242.33 25.88C240.116 23.32 239.01 19.72 239.01 15.08C239.01 12.0667 239.503 9.46667 240.49 7.28C241.503 5.09333 242.956 3.41333 244.85 2.24C246.77 1.06666 249.063 0.479998 251.73 0.479998ZM251.73 5.8C249.996 5.8 248.716 6.52 247.89 7.96C247.09 9.4 246.69 11.7733 246.69 15.08C246.69 18.3867 247.103 20.7733 247.93 22.24C248.756 23.68 250.023 24.4 251.73 24.4C253.49 24.4 254.77 23.68 255.57 22.24C256.37 20.8 256.77 18.4133 256.77 15.08C256.77 11.7733 256.37 9.4 255.57 7.96C254.77 6.52 253.49 5.8 251.73 5.8Z" fill="black"/>
</svg>
